<mxfile host="app.diagrams.net" agent="Mozilla/5.0 (Windows NT 10.0; Win64; x64) AppleWebKit/537.36 (KHTML, like Gecko) Chrome/132.0.0.0 Safari/537.36" version="26.0.11">
  <diagram name="Page-1" id="u_x2pMp3l8XSAcsyZ34R">
    <mxGraphModel dx="1383" dy="603" grid="1" gridSize="10" guides="1" tooltips="1" connect="1" arrows="1" fold="1" page="1" pageScale="1" pageWidth="850" pageHeight="1100" math="0" shadow="0">
      <root>
        <mxCell id="0" />
        <mxCell id="1" parent="0" />
        <mxCell id="zNrLxGkSbUmwhNPTjMLC-9" value="" style="ellipse;whiteSpace=wrap;html=1;aspect=fixed;strokeColor=light-dark(#33FF33,#FFFFFF);" vertex="1" parent="1">
          <mxGeometry x="560" y="310" width="20" height="20" as="geometry" />
        </mxCell>
        <mxCell id="zNrLxGkSbUmwhNPTjMLC-1" value="" style="image;sketch=0;aspect=fixed;html=1;points=[];align=center;fontSize=12;image=img/lib/mscae/Person.svg;" vertex="1" parent="1">
          <mxGeometry x="80" y="230" width="37" height="50" as="geometry" />
        </mxCell>
        <mxCell id="zNrLxGkSbUmwhNPTjMLC-2" value="" style="endArrow=classic;html=1;rounded=0;" edge="1" parent="1">
          <mxGeometry width="50" height="50" relative="1" as="geometry">
            <mxPoint x="140" y="260" as="sourcePoint" />
            <mxPoint x="850" y="410" as="targetPoint" />
            <Array as="points">
              <mxPoint x="200" y="250" />
              <mxPoint x="250" y="270" />
              <mxPoint x="300" y="250" />
              <mxPoint x="410" y="250" />
              <mxPoint x="530" y="300" />
              <mxPoint x="590" y="330" />
              <mxPoint x="650" y="340" />
              <mxPoint x="690" y="360" />
              <mxPoint x="760" y="380" />
            </Array>
          </mxGeometry>
        </mxCell>
        <mxCell id="zNrLxGkSbUmwhNPTjMLC-3" value="" style="endArrow=none;dashed=1;html=1;dashPattern=1 3;strokeWidth=2;rounded=0;fillColor=#FF3333;strokeColor=light-dark(#FF3333,#FFFFFF);" edge="1" parent="1">
          <mxGeometry width="50" height="50" relative="1" as="geometry">
            <mxPoint x="120" y="319" as="sourcePoint" />
            <mxPoint x="880" y="319.43" as="targetPoint" />
          </mxGeometry>
        </mxCell>
        <mxCell id="zNrLxGkSbUmwhNPTjMLC-5" value="" style="endArrow=none;html=1;rounded=0;" edge="1" parent="1">
          <mxGeometry width="50" height="50" relative="1" as="geometry">
            <mxPoint x="120" y="440" as="sourcePoint" />
            <mxPoint x="120" y="210" as="targetPoint" />
          </mxGeometry>
        </mxCell>
        <mxCell id="zNrLxGkSbUmwhNPTjMLC-6" value="" style="endArrow=none;html=1;rounded=0;" edge="1" parent="1">
          <mxGeometry width="50" height="50" relative="1" as="geometry">
            <mxPoint x="120" y="440" as="sourcePoint" />
            <mxPoint x="850" y="440" as="targetPoint" />
          </mxGeometry>
        </mxCell>
        <mxCell id="zNrLxGkSbUmwhNPTjMLC-7" value="&lt;font style=&quot;color: rgb(255, 51, 51);&quot;&gt;Probability Threshold&lt;/font&gt;" style="text;html=1;align=center;verticalAlign=middle;whiteSpace=wrap;rounded=0;" vertex="1" parent="1">
          <mxGeometry x="130" y="280" width="60" height="30" as="geometry" />
        </mxCell>
        <mxCell id="zNrLxGkSbUmwhNPTjMLC-8" value="User&#39;s Probability Score" style="text;html=1;align=center;verticalAlign=middle;whiteSpace=wrap;rounded=0;" vertex="1" parent="1">
          <mxGeometry x="48.5" y="180" width="100" height="60" as="geometry" />
        </mxCell>
        <mxCell id="zNrLxGkSbUmwhNPTjMLC-13" value="Trigger in an attempt to rescue customer" style="text;html=1;align=center;verticalAlign=middle;whiteSpace=wrap;rounded=0;" vertex="1" parent="1">
          <mxGeometry x="550" y="220" width="160" height="30" as="geometry" />
        </mxCell>
        <mxCell id="zNrLxGkSbUmwhNPTjMLC-15" value="" style="endArrow=classic;html=1;rounded=0;strokeColor=light-dark(#33FF33,#FFFFFF);" edge="1" parent="1">
          <mxGeometry width="50" height="50" relative="1" as="geometry">
            <mxPoint x="630" y="260" as="sourcePoint" />
            <mxPoint x="580" y="310" as="targetPoint" />
          </mxGeometry>
        </mxCell>
        <mxCell id="zNrLxGkSbUmwhNPTjMLC-18" value="Probability Score" style="text;html=1;align=center;verticalAlign=middle;whiteSpace=wrap;rounded=0;rotation=-90;" vertex="1" parent="1">
          <mxGeometry x="67" y="360" width="93" height="30" as="geometry" />
        </mxCell>
        <mxCell id="zNrLxGkSbUmwhNPTjMLC-19" value="" style="endArrow=classic;html=1;rounded=0;" edge="1" parent="1">
          <mxGeometry width="50" height="50" relative="1" as="geometry">
            <mxPoint x="250" y="190" as="sourcePoint" />
            <mxPoint x="210" y="240" as="targetPoint" />
          </mxGeometry>
        </mxCell>
        <mxCell id="zNrLxGkSbUmwhNPTjMLC-20" value="&lt;font style=&quot;font-size: 10px;&quot;&gt;User makes a purchase, chances to shop again soon drop&lt;/font&gt;" style="text;html=1;align=center;verticalAlign=middle;whiteSpace=wrap;rounded=0;" vertex="1" parent="1">
          <mxGeometry x="210" y="160" width="140" height="30" as="geometry" />
        </mxCell>
        <mxCell id="zNrLxGkSbUmwhNPTjMLC-21" value="" style="endArrow=classic;html=1;rounded=0;" edge="1" parent="1">
          <mxGeometry width="50" height="50" relative="1" as="geometry">
            <mxPoint x="320" y="270" as="sourcePoint" />
            <mxPoint x="260" y="270" as="targetPoint" />
          </mxGeometry>
        </mxCell>
        <mxCell id="zNrLxGkSbUmwhNPTjMLC-22" value="&lt;font style=&quot;font-size: 10px;&quot;&gt;User visits website, increasing chances to shop again&lt;/font&gt;" style="text;html=1;align=center;verticalAlign=middle;whiteSpace=wrap;rounded=0;" vertex="1" parent="1">
          <mxGeometry x="300" y="270" width="130" height="30" as="geometry" />
        </mxCell>
        <mxCell id="zNrLxGkSbUmwhNPTjMLC-23" value="" style="endArrow=classic;html=1;rounded=0;" edge="1" parent="1">
          <mxGeometry width="50" height="50" relative="1" as="geometry">
            <mxPoint x="470" y="190" as="sourcePoint" />
            <mxPoint x="420" y="240" as="targetPoint" />
          </mxGeometry>
        </mxCell>
        <mxCell id="zNrLxGkSbUmwhNPTjMLC-25" value="&lt;font style=&quot;font-size: 10px;&quot;&gt;No interactions from the user for a few weeks, probability starts to drop&lt;/font&gt;" style="text;html=1;align=center;verticalAlign=middle;whiteSpace=wrap;rounded=0;" vertex="1" parent="1">
          <mxGeometry x="420" y="160" width="150" height="30" as="geometry" />
        </mxCell>
        <mxCell id="zNrLxGkSbUmwhNPTjMLC-27" value="" style="endArrow=none;dashed=1;html=1;rounded=0;" edge="1" parent="1">
          <mxGeometry width="50" height="50" relative="1" as="geometry">
            <mxPoint x="200" y="440" as="sourcePoint" />
            <mxPoint x="200" y="250" as="targetPoint" />
          </mxGeometry>
        </mxCell>
        <mxCell id="zNrLxGkSbUmwhNPTjMLC-28" value="" style="endArrow=none;dashed=1;html=1;rounded=0;strokeColor=light-dark(#FFB570,#FFFFFF);" edge="1" parent="1">
          <mxGeometry width="50" height="50" relative="1" as="geometry">
            <mxPoint x="800" y="440" as="sourcePoint" />
            <mxPoint x="800" y="320" as="targetPoint" />
          </mxGeometry>
        </mxCell>
        <mxCell id="zNrLxGkSbUmwhNPTjMLC-32" value="" style="endArrow=none;html=1;rounded=0;" edge="1" parent="1">
          <mxGeometry width="50" height="50" relative="1" as="geometry">
            <mxPoint x="360" y="450" as="sourcePoint" />
            <mxPoint x="360.00000000000006" y="430" as="targetPoint" />
          </mxGeometry>
        </mxCell>
        <mxCell id="zNrLxGkSbUmwhNPTjMLC-33" value="" style="endArrow=none;html=1;rounded=0;" edge="1" parent="1">
          <mxGeometry width="50" height="50" relative="1" as="geometry">
            <mxPoint x="240" y="450" as="sourcePoint" />
            <mxPoint x="240.00000000000006" y="430" as="targetPoint" />
          </mxGeometry>
        </mxCell>
        <mxCell id="zNrLxGkSbUmwhNPTjMLC-34" value="" style="endArrow=none;html=1;rounded=0;" edge="1" parent="1">
          <mxGeometry width="50" height="50" relative="1" as="geometry">
            <mxPoint x="480" y="450" as="sourcePoint" />
            <mxPoint x="480.00000000000006" y="430" as="targetPoint" />
          </mxGeometry>
        </mxCell>
        <mxCell id="zNrLxGkSbUmwhNPTjMLC-35" value="" style="endArrow=none;html=1;rounded=0;" edge="1" parent="1">
          <mxGeometry width="50" height="50" relative="1" as="geometry">
            <mxPoint x="600" y="450" as="sourcePoint" />
            <mxPoint x="600" y="430" as="targetPoint" />
          </mxGeometry>
        </mxCell>
        <mxCell id="zNrLxGkSbUmwhNPTjMLC-36" value="" style="endArrow=none;html=1;rounded=0;" edge="1" parent="1">
          <mxGeometry width="50" height="50" relative="1" as="geometry">
            <mxPoint x="720" y="450" as="sourcePoint" />
            <mxPoint x="720" y="430" as="targetPoint" />
          </mxGeometry>
        </mxCell>
        <mxCell id="zNrLxGkSbUmwhNPTjMLC-37" value="" style="endArrow=none;html=1;rounded=0;" edge="1" parent="1">
          <mxGeometry width="50" height="50" relative="1" as="geometry">
            <mxPoint x="840" y="450" as="sourcePoint" />
            <mxPoint x="840" y="430" as="targetPoint" />
          </mxGeometry>
        </mxCell>
        <mxCell id="zNrLxGkSbUmwhNPTjMLC-38" value="&lt;b&gt;Month 1&lt;/b&gt;" style="text;html=1;align=center;verticalAlign=middle;whiteSpace=wrap;rounded=0;rotation=-30;" vertex="1" parent="1">
          <mxGeometry x="210" y="470" width="60" height="30" as="geometry" />
        </mxCell>
        <mxCell id="zNrLxGkSbUmwhNPTjMLC-39" value="&lt;b&gt;Month 3&lt;/b&gt;" style="text;html=1;align=center;verticalAlign=middle;whiteSpace=wrap;rounded=0;rotation=-30;" vertex="1" parent="1">
          <mxGeometry x="330" y="470" width="60" height="30" as="geometry" />
        </mxCell>
        <mxCell id="zNrLxGkSbUmwhNPTjMLC-40" value="&lt;b&gt;Month 6&lt;/b&gt;" style="text;html=1;align=center;verticalAlign=middle;whiteSpace=wrap;rounded=0;rotation=-30;" vertex="1" parent="1">
          <mxGeometry x="450" y="470" width="60" height="30" as="geometry" />
        </mxCell>
        <mxCell id="zNrLxGkSbUmwhNPTjMLC-41" value="&lt;b&gt;Month 9&lt;/b&gt;" style="text;html=1;align=center;verticalAlign=middle;whiteSpace=wrap;rounded=0;rotation=-30;" vertex="1" parent="1">
          <mxGeometry x="570" y="470" width="60" height="30" as="geometry" />
        </mxCell>
        <mxCell id="zNrLxGkSbUmwhNPTjMLC-42" value="&lt;b&gt;Month 12&lt;/b&gt;" style="text;html=1;align=center;verticalAlign=middle;whiteSpace=wrap;rounded=0;rotation=-30;" vertex="1" parent="1">
          <mxGeometry x="690" y="470" width="60" height="30" as="geometry" />
        </mxCell>
        <mxCell id="zNrLxGkSbUmwhNPTjMLC-43" value="&lt;b&gt;Month 15&lt;/b&gt;" style="text;html=1;align=center;verticalAlign=middle;whiteSpace=wrap;rounded=0;rotation=-30;" vertex="1" parent="1">
          <mxGeometry x="810" y="470" width="60" height="30" as="geometry" />
        </mxCell>
        <mxCell id="zNrLxGkSbUmwhNPTjMLC-44" value="" style="endArrow=classic;html=1;rounded=0;strokeColor=light-dark(#FFB570,#FFFFFF);" edge="1" parent="1">
          <mxGeometry width="50" height="50" relative="1" as="geometry">
            <mxPoint x="780" y="270" as="sourcePoint" />
            <mxPoint x="800" y="310" as="targetPoint" />
          </mxGeometry>
        </mxCell>
        <mxCell id="zNrLxGkSbUmwhNPTjMLC-45" value="12 month no interaction, customer has churned" style="text;html=1;align=center;verticalAlign=middle;whiteSpace=wrap;rounded=0;" vertex="1" parent="1">
          <mxGeometry x="730" y="200" width="100" height="70" as="geometry" />
        </mxCell>
      </root>
    </mxGraphModel>
  </diagram>
</mxfile>
